<svg xmlns="http://www.w3.org/2000/svg" xml:space="preserve" fill-rule="evenodd" stroke-linejoin="round" stroke-miterlimit="2" clip-rule="evenodd" viewBox="0 0 154 96">
    <path fill="#659d4f" d="M120.663.94c3.206.136 6.56.352 9.546 1.137 3.068.806 5.76 2.202 8.444 3.938 4.673 3.02 8.395 7.95 11.122 12.705 2.906 5.066 4.113 14.11 4.025 17.189-.05 1.767-.04 3.064-.152 5.385-.134 2.745-.8 6.758-1.426 8.665-.9 2.744-2.15 6.721-3.82 10.12-1.743 3.546-3.954 6.522-6.376 9.937-2.8 3.949-8.679 9.247-11.59 11.696-4.442 3.734-10.826 7.168-13.926 8.449-2.238.925-7.536 2.948-9.612 3.486-3.247.842-6.821 1.504-7.534 1.644 0 0-1.156-.694-1.734-1.277 2.7-1.468 7.31-4.715 10.48-9.96 3.188-5.274 5.543-12.028 5.219-15.801 0 0-5.995-1.448-11.863-5.174-4.896-3.104-9.558-8.042-11.937-12.725-2.164-4.26-2.789-9.271-3.024-14.461-.209-4.615 1.916-13.978 5.569-19.363C97.8 8.089 108.604.43 120.663.94Zm-86.16 0c3.207.136 6.561.352 9.547 1.137 3.068.806 5.76 2.202 8.444 3.938 4.673 3.02 8.395 7.95 11.122 12.705 2.906 5.066 4.113 14.11 4.025 17.189-.05 1.767-.04 3.064-.152 5.385-.134 2.745-.8 6.758-1.426 8.665-.9 2.744-2.15 6.721-3.82 10.12-1.743 3.546-3.954 6.522-6.376 9.937-2.8 3.949-8.679 9.247-11.59 11.696-4.442 3.734-10.826 7.168-13.926 8.449-2.238.925-7.536 2.948-9.612 3.486-3.247.842-6.821 1.504-7.534 1.644 0 0-1.156-.694-1.734-1.277 2.7-1.468 7.31-4.715 10.48-9.96 3.188-5.274 5.543-12.028 5.219-15.801 0 0-5.995-1.448-11.863-5.174-4.896-3.104-9.558-8.042-11.937-12.725C1.206 46.094.581 41.083.346 35.893.137 31.278 2.262 21.915 5.915 16.53 11.64 8.089 22.445.43 34.504.94Z"/>
</svg>