<?xml version="1.0" encoding="UTF-8" standalone="no"?>
<!DOCTYPE svg PUBLIC "-//W3C//DTD SVG 1.1//EN" "http://www.w3.org/Graphics/SVG/1.1/DTD/svg11.dtd">
<svg width="100%" height="100%" viewBox="0 0 154 96" version="1.1" xmlns="http://www.w3.org/2000/svg" xmlns:xlink="http://www.w3.org/1999/xlink" xml:space="preserve" xmlns:serif="http://www.serif.com/" style="fill-rule:evenodd;clip-rule:evenodd;stroke-linejoin:round;stroke-miterlimit:2;">
    <g transform="matrix(1,0,0,1,-827,-5195)">
        <g transform="matrix(0.39891,0,0,0.39891,632.24,3844.96)">
            <path d="M790.712,3386.68C798.75,3387.02 807.158,3387.56 814.642,3389.53C822.334,3391.55 829.082,3395.05 835.81,3399.4C847.525,3406.97 856.855,3419.33 863.69,3431.25C870.975,3443.95 874.002,3466.62 873.782,3474.34C873.655,3478.77 873.682,3482.02 873.399,3487.84C873.065,3494.72 871.396,3504.78 869.826,3509.56C867.569,3516.44 864.436,3526.41 860.25,3534.93C855.88,3543.82 850.336,3551.28 844.266,3559.84C837.245,3569.74 822.509,3583.02 815.21,3589.16C804.077,3598.52 788.072,3607.13 780.302,3610.34C774.692,3612.66 761.409,3617.73 756.205,3619.08C748.065,3621.19 739.106,3622.85 737.32,3623.2C737.32,3623.2 734.421,3621.46 732.972,3620C739.739,3616.32 751.295,3608.18 759.242,3595.03C767.235,3581.81 773.139,3564.88 772.327,3555.42C772.327,3555.42 757.299,3551.79 742.589,3542.45C730.316,3534.67 718.628,3522.29 712.665,3510.55C707.239,3499.87 705.673,3487.31 705.084,3474.3C704.56,3462.73 709.888,3439.26 719.044,3425.76C733.398,3404.6 760.483,3385.4 790.712,3386.68ZM574.726,3386.68C582.764,3387.02 591.172,3387.56 598.656,3389.53C606.348,3391.55 613.096,3395.05 619.824,3399.4C631.539,3406.97 640.869,3419.33 647.704,3431.25C654.989,3443.95 658.016,3466.62 657.796,3474.34C657.669,3478.77 657.696,3482.02 657.413,3487.84C657.079,3494.72 655.41,3504.78 653.84,3509.56C651.583,3516.44 648.45,3526.41 644.264,3534.93C639.894,3543.82 634.35,3551.28 628.28,3559.84C621.259,3569.74 606.523,3583.02 599.224,3589.16C588.091,3598.52 572.086,3607.13 564.316,3610.34C558.706,3612.66 545.423,3617.73 540.219,3619.08C532.079,3621.19 523.12,3622.85 521.334,3623.2C521.334,3623.2 518.435,3621.46 516.986,3620C523.753,3616.32 535.309,3608.18 543.256,3595.03C551.249,3581.81 557.153,3564.88 556.341,3555.42C556.341,3555.42 541.313,3551.79 526.603,3542.45C514.33,3534.67 502.642,3522.29 496.679,3510.55C491.253,3499.87 489.687,3487.31 489.098,3474.3C488.574,3462.73 493.902,3439.26 503.058,3425.76C517.412,3404.6 544.497,3385.4 574.726,3386.68Z" style="fill:rgb(101,157,79);"/>
        </g>
    </g>
</svg>
